<svg width="37" height="53" viewBox="0 0 37 53" fill="none" xmlns="http://www.w3.org/2000/svg">
<path d="M10.0972 47.0316C10.0983 47.6827 10.2938 48.3203 10.6606 48.8628L12.457 51.5221C12.7639 51.9767 13.1801 52.3495 13.6687 52.6074C14.1572 52.8653 14.7029 53.0003 15.2572 53.0003H21.7438C22.2981 53.0003 22.8438 52.8653 23.3324 52.6074C23.8209 52.3495 24.2372 51.9767 24.544 51.5221L26.3404 48.8628C26.7071 48.3203 26.9031 47.6833 26.9038 47.0316L26.908 43.0617H10.092L10.0972 47.0316ZM0 18.218C0 22.811 1.72912 27.0013 4.57875 30.203C6.31523 32.1543 9.03136 36.2307 10.0667 39.6695C10.0709 39.6964 10.0741 39.7234 10.0783 39.7503H26.9217C26.9259 39.7234 26.9291 39.6975 26.9333 39.6695C27.9686 36.2307 30.6848 32.1543 32.4212 30.203C35.2709 27.0013 37 22.811 37 18.218C37 8.1366 28.6866 -0.0318209 18.4422 -0.000766237C7.71954 0.0313236 0 8.58793 0 18.218ZM18.5 9.93673C13.8634 9.93673 10.0909 13.6519 10.0909 18.218C10.0909 19.1331 9.33829 19.8742 8.40909 19.8742C7.47989 19.8742 6.72727 19.1331 6.72727 18.218C6.72727 11.8249 12.0082 6.62423 18.5 6.62423C19.4292 6.62423 20.1818 7.36541 20.1818 8.28048C20.1818 9.19556 19.4292 9.93673 18.5 9.93673Z" fill="#F2D040"/>
</svg>
