<svg width="57" height="38" viewBox="0 0 57 38" fill="none" xmlns="http://www.w3.org/2000/svg">
<path d="M15 15.8816V21.9342H45V15.8816C45 12.5432 47.6906 9.82895 51 9.82895H54C54 4.81661 49.9688 0.75 45 0.75H15C10.0313 0.75 6 4.81661 6 9.82895H9C12.3094 9.82895 15 12.5432 15 15.8816ZM54 12.8553H51C49.3406 12.8553 48 14.2076 48 15.8816V24.9605H12V15.8816C12 14.2076 10.6594 12.8553 9 12.8553H6C2.69062 12.8553 0 15.5695 0 18.9079C0 21.1398 1.21875 23.0691 3 24.1188V35.5526C3 36.3849 3.675 37.0658 4.5 37.0658H10.5C11.325 37.0658 12 36.3849 12 35.5526V34.0395H48V35.5526C48 36.3849 48.675 37.0658 49.5 37.0658H55.5C56.325 37.0658 57 36.3849 57 35.5526V24.1188C58.7812 23.0691 60 21.1398 60 18.9079C60 15.5695 57.3094 12.8553 54 12.8553Z" fill="#F2D040"/>
</svg>
