<svg width="46" height="46" viewBox="0 0 46 46" fill="none" xmlns="http://www.w3.org/2000/svg">
<path d="M33.8217 2.875H12.1783C7.95078 2.87474 3.78132 1.89043 0 0L0 8.625C0 10.2125 1.28746 11.5 2.875 11.5H5.75V17.25H1.4375C0.643281 17.25 0 17.8933 0 18.6875V21.5625C0 22.3567 0.643281 23 1.4375 23H5.75V44.5625C5.75 45.3567 6.39328 46 7.1875 46H10.0625C10.8567 46 11.5 45.3567 11.5 44.5625V23H34.5V44.5625C34.5 45.3567 35.1433 46 35.9375 46H38.8125C39.6067 46 40.25 45.3567 40.25 44.5625V23H44.5625C45.3567 23 46 22.3567 46 21.5625V18.6875C46 17.8933 45.3567 17.25 44.5625 17.25H40.25V11.5H43.125C44.7125 11.5 46 10.2125 46 8.625V0C42.2187 1.89043 38.0492 2.87474 33.8217 2.875ZM11.5 11.5H20.125V17.25H11.5V11.5ZM34.5 17.25H25.875V11.5H34.5V17.25Z" fill="#F2D040"/>
</svg>
